<svg width="312" height="271" viewBox="0 0 312 271" fill="none" xmlns="http://www.w3.org/2000/svg">
<circle cx="40" cy="125" r="40" fill="url(#paint0_linear_52_130)" fill-opacity="0.8"/>
<ellipse opacity="0.5" cx="18.0377" cy="108.223" rx="3.2" ry="5.6" transform="rotate(32.6295 18.0377 108.223)" fill="white"/>
<rect x="13.0215" y="116.2" width="4" height="7.2" transform="rotate(8.15118 13.0215 116.2)" fill="#EAF1FF"/>
<circle cx="34" cy="50" r="32" fill="url(#paint1_linear_52_130)" fill-opacity="0.8"/>
<ellipse opacity="0.5" cx="16.4298" cy="36.5787" rx="2.56" ry="4.48" transform="rotate(32.6295 16.4298 36.5787)" fill="white"/>
<rect x="12.417" y="42.96" width="3.2" height="5.76" transform="rotate(8.15118 12.417 42.96)" fill="#EAF1FF"/>
<circle cx="224" cy="-13" r="16" fill="url(#paint2_linear_52_130)" fill-opacity="0.8"/>
<circle cx="188" cy="85" r="40" fill="url(#paint3_linear_52_130)" fill-opacity="0.8"/>
<ellipse opacity="0.5" cx="172.143" cy="66.052" rx="4" ry="7" transform="rotate(32.6295 172.143 66.052)" fill="white"/>
<circle cx="95" cy="227" r="44" fill="url(#paint4_linear_52_130)" fill-opacity="0.8"/>
<ellipse opacity="0.5" cx="77.5576" cy="206.157" rx="4.4" ry="7.7" transform="rotate(32.6295 77.5576 206.157)" fill="white"/>
<circle cx="80" cy="70" r="50" fill="url(#paint5_linear_52_130)" fill-opacity="0.8"/>
<ellipse opacity="0.5" cx="47.5474" cy="47.0292" rx="4" ry="7" transform="rotate(32.6295 47.5474 47.0292)" fill="white"/>
<rect x="41.2764" y="57" width="5" height="9" transform="rotate(8.15118 41.2764 57)" fill="#EAF1FF"/>
<circle cx="193" cy="192" r="46" fill="url(#paint6_linear_52_130)" fill-opacity="0.8"/>
<ellipse opacity="0.5" cx="167.744" cy="172.707" rx="3.68" ry="6.44" transform="rotate(32.6295 167.744 172.707)" fill="white"/>
<rect x="161.975" y="181.88" width="4.6" height="8.28" transform="rotate(8.15118 161.975 181.88)" fill="#EAF1FF"/>
<circle cx="109" cy="145" r="50" fill="url(#paint7_linear_52_130)" fill-opacity="0.8"/>
<ellipse opacity="0.5" cx="81.5474" cy="125.052" rx="4" ry="7" transform="rotate(32.6295 81.5474 125.052)" fill="white"/>
<rect x="75.2764" y="135.023" width="5" height="9" transform="rotate(8.15118 75.2764 135.023)" fill="#EAF1FF"/>
<circle cx="134" cy="186" r="27" fill="url(#paint8_linear_52_130)" fill-opacity="0.8"/>
<ellipse opacity="0.5" cx="119.175" cy="175.228" rx="2.16" ry="3.78" transform="rotate(32.6295 119.175 175.228)" fill="white"/>
<rect x="115.789" y="180.612" width="2.7" height="4.86" transform="rotate(8.15118 115.789 180.612)" fill="#EAF1FF"/>
<circle cx="44" cy="171" r="44" fill="url(#paint9_linear_52_130)" fill-opacity="0.8"/>
<ellipse opacity="0.5" cx="19.8422" cy="153.446" rx="3.52" ry="6.16" transform="rotate(32.6295 19.8422 153.446)" fill="white"/>
<rect x="14.3232" y="162.22" width="4.4" height="7.92" transform="rotate(8.15118 14.3232 162.22)" fill="#EAF1FF"/>
<circle cx="250" cy="129" r="62" fill="url(#paint10_linear_52_130)" fill-opacity="0.8"/>
<ellipse opacity="0.5" cx="215.959" cy="104.265" rx="4.96" ry="8.68" transform="rotate(32.6295 215.959 104.265)" fill="white"/>
<rect x="208.183" y="116.628" width="6.2" height="11.16" transform="rotate(8.15118 208.183 116.628)" fill="#EAF1FF"/>
<circle cx="160" cy="129" r="12" fill="url(#paint11_linear_52_130)" fill-opacity="0.8"/>
<ellipse opacity="0.5" cx="153.411" cy="124.212" rx="0.96" ry="1.68" transform="rotate(32.6295 153.411 124.212)" fill="white"/>
<rect x="151.906" y="126.605" width="1.2" height="2.16" transform="rotate(8.15118 151.906 126.605)" fill="#EAF1FF"/>
<circle cx="147" cy="100" r="25" fill="url(#paint12_linear_52_130)" fill-opacity="0.8"/>
<ellipse opacity="0.5" cx="133.274" cy="90.026" rx="2" ry="3.5" transform="rotate(32.6295 133.274 90.026)" fill="white"/>
<rect x="130.139" y="95.0114" width="2.5" height="4.5" transform="rotate(8.15118 130.139 95.0114)" fill="#EAF1FF"/>
<defs>
<linearGradient id="paint0_linear_52_130" x1="17.2" y1="90.2" x2="106.4" y2="169.8" gradientUnits="userSpaceOnUse">
<stop stop-color="#C6D6F7"/>
<stop offset="1" stop-color="#CFDFFF" stop-opacity="0"/>
</linearGradient>
<linearGradient id="paint1_linear_52_130" x1="15.76" y1="22.16" x2="87.12" y2="85.84" gradientUnits="userSpaceOnUse">
<stop stop-color="#C6D6F7"/>
<stop offset="1" stop-color="#CFDFFF" stop-opacity="0"/>
</linearGradient>
<linearGradient id="paint2_linear_52_130" x1="214.88" y1="-26.92" x2="236.64" y2="-2.12" gradientUnits="userSpaceOnUse">
<stop stop-color="#D2DAEA"/>
<stop offset="1" stop-color="#CFDFFF" stop-opacity="0"/>
</linearGradient>
<linearGradient id="paint3_linear_52_130" x1="199.2" y1="47.8" x2="148" y2="81.8" gradientUnits="userSpaceOnUse">
<stop stop-color="#A2BCEF"/>
<stop offset="1" stop-color="#CFDFFF" stop-opacity="0"/>
</linearGradient>
<linearGradient id="paint4_linear_52_130" x1="107.32" y1="186.08" x2="51" y2="223.48" gradientUnits="userSpaceOnUse">
<stop stop-color="#A2BCEF"/>
<stop offset="1" stop-color="#CFDFFF" stop-opacity="0"/>
</linearGradient>
<linearGradient id="paint5_linear_52_130" x1="51.5" y1="26.5" x2="163" y2="126" gradientUnits="userSpaceOnUse">
<stop stop-color="#C6D6F7"/>
<stop offset="1" stop-color="#CFDFFF" stop-opacity="0"/>
</linearGradient>
<linearGradient id="paint6_linear_52_130" x1="166.78" y1="151.98" x2="269.36" y2="243.52" gradientUnits="userSpaceOnUse">
<stop stop-color="#C6D6F7"/>
<stop offset="1" stop-color="#CFDFFF" stop-opacity="0"/>
</linearGradient>
<linearGradient id="paint7_linear_52_130" x1="80.5" y1="101.5" x2="148.5" y2="179" gradientUnits="userSpaceOnUse">
<stop stop-color="#D2DAEA"/>
<stop offset="1" stop-color="#CFDFFF" stop-opacity="0"/>
</linearGradient>
<linearGradient id="paint8_linear_52_130" x1="118.61" y1="162.51" x2="155.33" y2="204.36" gradientUnits="userSpaceOnUse">
<stop stop-color="#D2DAEA"/>
<stop offset="1" stop-color="#CFDFFF" stop-opacity="0"/>
</linearGradient>
<linearGradient id="paint9_linear_52_130" x1="18.92" y1="132.72" x2="78.76" y2="200.92" gradientUnits="userSpaceOnUse">
<stop stop-color="#D2DAEA"/>
<stop offset="1" stop-color="#CFDFFF" stop-opacity="0"/>
</linearGradient>
<linearGradient id="paint10_linear_52_130" x1="214.66" y1="75.06" x2="298.98" y2="171.16" gradientUnits="userSpaceOnUse">
<stop stop-color="#D2DAEA"/>
<stop offset="1" stop-color="#CFDFFF" stop-opacity="0"/>
</linearGradient>
<linearGradient id="paint11_linear_52_130" x1="153.16" y1="118.56" x2="169.48" y2="137.16" gradientUnits="userSpaceOnUse">
<stop stop-color="#D2DAEA"/>
<stop offset="1" stop-color="#CFDFFF" stop-opacity="0"/>
</linearGradient>
<linearGradient id="paint12_linear_52_130" x1="132.75" y1="78.25" x2="166.75" y2="117" gradientUnits="userSpaceOnUse">
<stop stop-color="#D2DAEA"/>
<stop offset="1" stop-color="#CFDFFF" stop-opacity="0"/>
</linearGradient>
</defs>
</svg>
