<svg width="417" height="330" viewBox="0 0 417 330" fill="none" xmlns="http://www.w3.org/2000/svg">
<circle cx="40" cy="144" r="40" fill="url(#paint0_linear_52_61)" fill-opacity="0.8"/>
<ellipse opacity="0.5" cx="18.0377" cy="127.223" rx="3.2" ry="5.6" transform="rotate(32.6295 18.0377 127.223)" fill="white"/>
<rect x="13.0215" y="135.2" width="4" height="7.2" transform="rotate(8.15118 13.0215 135.2)" fill="#EAF1FF"/>
<circle cx="93" cy="79" r="32" fill="url(#paint1_linear_52_61)" fill-opacity="0.8"/>
<ellipse opacity="0.5" cx="75.4298" cy="65.5787" rx="2.56" ry="4.48" transform="rotate(32.6295 75.4298 65.5787)" fill="white"/>
<rect x="71.417" y="71.96" width="3.2" height="5.76" transform="rotate(8.15118 71.417 71.96)" fill="#EAF1FF"/>
<circle cx="283" cy="16" r="16" fill="url(#paint2_linear_52_61)" fill-opacity="0.8"/>
<circle cx="152" cy="306" r="16" fill="url(#paint3_linear_52_61)" fill-opacity="0.8"/>
<circle cx="268" cy="110" r="40" fill="url(#paint4_linear_52_61)" fill-opacity="0.8"/>
<ellipse opacity="0.5" cx="252.143" cy="91.052" rx="4" ry="7" transform="rotate(32.6295 252.143 91.052)" fill="white"/>
<circle cx="154" cy="256" r="44" fill="url(#paint5_linear_52_61)" fill-opacity="0.8"/>
<ellipse opacity="0.5" cx="136.558" cy="235.157" rx="4.4" ry="7.7" transform="rotate(32.6295 136.558 235.157)" fill="white"/>
<circle cx="176" cy="69" r="50" fill="url(#paint6_linear_52_61)" fill-opacity="0.8"/>
<ellipse opacity="0.5" cx="153.547" cy="46.0292" rx="4" ry="7" transform="rotate(32.6295 153.547 46.0292)" fill="white"/>
<rect x="147.276" y="56" width="5" height="9" transform="rotate(8.15118 147.276 56)" fill="#EAF1FF"/>
<circle cx="217" cy="290" r="40" fill="url(#paint7_linear_52_61)" fill-opacity="0.8"/>
<ellipse opacity="0.5" cx="199.038" cy="271.623" rx="3.2" ry="5.6" transform="rotate(32.6295 199.038 271.623)" fill="white"/>
<rect x="194.021" y="279.6" width="4" height="7.2" transform="rotate(8.15118 194.021 279.6)" fill="#EAF1FF"/>
<circle cx="283" cy="228" r="46" fill="url(#paint8_linear_52_61)" fill-opacity="0.8"/>
<ellipse opacity="0.5" cx="257.744" cy="208.707" rx="3.68" ry="6.44" transform="rotate(32.6295 257.744 208.707)" fill="white"/>
<rect x="251.975" y="217.88" width="4.6" height="8.28" transform="rotate(8.15118 251.975 217.88)" fill="#EAF1FF"/>
<circle cx="168" cy="174" r="50" fill="url(#paint9_linear_52_61)" fill-opacity="0.8"/>
<ellipse opacity="0.5" cx="140.547" cy="154.052" rx="4" ry="7" transform="rotate(32.6295 140.547 154.052)" fill="white"/>
<rect x="134.276" y="164.023" width="5" height="9" transform="rotate(8.15118 134.276 164.023)" fill="#EAF1FF"/>
<circle cx="193" cy="215" r="27" fill="url(#paint10_linear_52_61)" fill-opacity="0.8"/>
<ellipse opacity="0.5" cx="178.175" cy="204.228" rx="2.16" ry="3.78" transform="rotate(32.6295 178.175 204.228)" fill="white"/>
<rect x="174.789" y="209.612" width="2.7" height="4.86" transform="rotate(8.15118 174.789 209.612)" fill="#EAF1FF"/>
<circle cx="103" cy="200" r="44" fill="url(#paint11_linear_52_61)" fill-opacity="0.8"/>
<ellipse opacity="0.5" cx="78.8422" cy="182.446" rx="3.52" ry="6.16" transform="rotate(32.6295 78.8422 182.446)" fill="white"/>
<rect x="73.3232" y="191.22" width="4.4" height="7.92" transform="rotate(8.15118 73.3232 191.22)" fill="#EAF1FF"/>
<circle cx="372" cy="286" r="44" fill="url(#paint12_linear_52_61)" fill-opacity="0.8"/>
<ellipse opacity="0.5" cx="347.842" cy="268.446" rx="3.52" ry="6.16" transform="rotate(32.6295 347.842 268.446)" fill="white"/>
<rect x="342.323" y="277.22" width="4.4" height="7.92" transform="rotate(8.15118 342.323 277.22)" fill="#EAF1FF"/>
<circle cx="53" cy="245" r="36" fill="url(#paint13_linear_52_61)" fill-opacity="0.8"/>
<ellipse opacity="0.5" cx="33.2342" cy="230.637" rx="2.88" ry="5.04" transform="rotate(32.6295 33.2342 230.637)" fill="white"/>
<rect x="28.7188" y="237.816" width="3.6" height="6.48" transform="rotate(8.15118 28.7188 237.816)" fill="#EAF1FF"/>
<circle cx="345" cy="164" r="62" transform="rotate(-9.25675 345 164)" fill="url(#paint14_linear_52_61)" fill-opacity="0.8"/>
<ellipse opacity="0.5" cx="307.423" cy="145.062" rx="4.96" ry="8.68" transform="rotate(23.3728 307.423 145.062)" fill="white"/>
<rect x="301.737" y="158.516" width="6.2" height="11.16" transform="rotate(-1.10557 301.737 158.516)" fill="#EAF1FF"/>
<circle cx="219" cy="158" r="12" fill="url(#paint15_linear_52_61)" fill-opacity="0.8"/>
<ellipse opacity="0.5" cx="212.411" cy="153.212" rx="0.96" ry="1.68" transform="rotate(32.6295 212.411 153.212)" fill="white"/>
<rect x="210.906" y="155.605" width="1.2" height="2.16" transform="rotate(8.15118 210.906 155.605)" fill="#EAF1FF"/>
<circle cx="89" cy="147" r="12" fill="url(#paint16_linear_52_61)" fill-opacity="0.8"/>
<ellipse opacity="0.5" cx="82.4114" cy="142.212" rx="0.96" ry="1.68" transform="rotate(32.6295 82.4114 142.212)" fill="white"/>
<rect x="80.9062" y="144.605" width="1.2" height="2.16" transform="rotate(8.15118 80.9062 144.605)" fill="#EAF1FF"/>
<circle cx="206" cy="129" r="25" fill="url(#paint17_linear_52_61)" fill-opacity="0.8"/>
<ellipse opacity="0.5" cx="192.274" cy="119.026" rx="2" ry="3.5" transform="rotate(32.6295 192.274 119.026)" fill="white"/>
<rect x="189.139" y="124.011" width="2.5" height="4.5" transform="rotate(8.15118 189.139 124.011)" fill="#EAF1FF"/>
<circle cx="118" cy="121" r="25" fill="url(#paint18_linear_52_61)" fill-opacity="0.8"/>
<ellipse opacity="0.5" cx="104.274" cy="111.026" rx="2" ry="3.5" transform="rotate(32.6295 104.274 111.026)" fill="white"/>
<rect x="101.139" y="116.011" width="2.5" height="4.5" transform="rotate(8.15118 101.139 116.011)" fill="#EAF1FF"/>
<defs>
<linearGradient id="paint0_linear_52_61" x1="17.2" y1="109.2" x2="106.4" y2="188.8" gradientUnits="userSpaceOnUse">
<stop stop-color="#C6D6F7"/>
<stop offset="1" stop-color="#CFDFFF" stop-opacity="0"/>
</linearGradient>
<linearGradient id="paint1_linear_52_61" x1="74.76" y1="51.16" x2="146.12" y2="114.84" gradientUnits="userSpaceOnUse">
<stop stop-color="#C6D6F7"/>
<stop offset="1" stop-color="#CFDFFF" stop-opacity="0"/>
</linearGradient>
<linearGradient id="paint2_linear_52_61" x1="273.88" y1="2.08" x2="295.64" y2="26.88" gradientUnits="userSpaceOnUse">
<stop stop-color="#D2DAEA"/>
<stop offset="1" stop-color="#CFDFFF" stop-opacity="0"/>
</linearGradient>
<linearGradient id="paint3_linear_52_61" x1="142.88" y1="292.08" x2="164.64" y2="316.88" gradientUnits="userSpaceOnUse">
<stop stop-color="#D2DAEA"/>
<stop offset="1" stop-color="#CFDFFF" stop-opacity="0"/>
</linearGradient>
<linearGradient id="paint4_linear_52_61" x1="279.2" y1="72.8" x2="228" y2="106.8" gradientUnits="userSpaceOnUse">
<stop stop-color="#A2BCEF"/>
<stop offset="1" stop-color="#CFDFFF" stop-opacity="0"/>
</linearGradient>
<linearGradient id="paint5_linear_52_61" x1="166.32" y1="215.08" x2="110" y2="252.48" gradientUnits="userSpaceOnUse">
<stop stop-color="#A2BCEF"/>
<stop offset="1" stop-color="#CFDFFF" stop-opacity="0"/>
</linearGradient>
<linearGradient id="paint6_linear_52_61" x1="147.5" y1="25.5" x2="259" y2="125" gradientUnits="userSpaceOnUse">
<stop stop-color="#C6D6F7"/>
<stop offset="1" stop-color="#CFDFFF" stop-opacity="0"/>
</linearGradient>
<linearGradient id="paint7_linear_52_61" x1="194.2" y1="255.2" x2="283.4" y2="334.8" gradientUnits="userSpaceOnUse">
<stop stop-color="#C6D6F7"/>
<stop offset="1" stop-color="#CFDFFF" stop-opacity="0"/>
</linearGradient>
<linearGradient id="paint8_linear_52_61" x1="256.78" y1="187.98" x2="359.36" y2="279.52" gradientUnits="userSpaceOnUse">
<stop stop-color="#C6D6F7"/>
<stop offset="1" stop-color="#CFDFFF" stop-opacity="0"/>
</linearGradient>
<linearGradient id="paint9_linear_52_61" x1="139.5" y1="130.5" x2="207.5" y2="208" gradientUnits="userSpaceOnUse">
<stop stop-color="#D2DAEA"/>
<stop offset="1" stop-color="#CFDFFF" stop-opacity="0"/>
</linearGradient>
<linearGradient id="paint10_linear_52_61" x1="177.61" y1="191.51" x2="214.33" y2="233.36" gradientUnits="userSpaceOnUse">
<stop stop-color="#D2DAEA"/>
<stop offset="1" stop-color="#CFDFFF" stop-opacity="0"/>
</linearGradient>
<linearGradient id="paint11_linear_52_61" x1="77.92" y1="161.72" x2="137.76" y2="229.92" gradientUnits="userSpaceOnUse">
<stop stop-color="#D2DAEA"/>
<stop offset="1" stop-color="#CFDFFF" stop-opacity="0"/>
</linearGradient>
<linearGradient id="paint12_linear_52_61" x1="346.92" y1="247.72" x2="406.76" y2="315.92" gradientUnits="userSpaceOnUse">
<stop stop-color="#D2DAEA"/>
<stop offset="1" stop-color="#CFDFFF" stop-opacity="0"/>
</linearGradient>
<linearGradient id="paint13_linear_52_61" x1="32.48" y1="213.68" x2="81.44" y2="269.48" gradientUnits="userSpaceOnUse">
<stop stop-color="#D2DAEA"/>
<stop offset="1" stop-color="#CFDFFF" stop-opacity="0"/>
</linearGradient>
<linearGradient id="paint14_linear_52_61" x1="309.66" y1="110.06" x2="393.98" y2="206.16" gradientUnits="userSpaceOnUse">
<stop stop-color="#D2DAEA"/>
<stop offset="1" stop-color="#CFDFFF" stop-opacity="0"/>
</linearGradient>
<linearGradient id="paint15_linear_52_61" x1="212.16" y1="147.56" x2="228.48" y2="166.16" gradientUnits="userSpaceOnUse">
<stop stop-color="#D2DAEA"/>
<stop offset="1" stop-color="#CFDFFF" stop-opacity="0"/>
</linearGradient>
<linearGradient id="paint16_linear_52_61" x1="82.16" y1="136.56" x2="98.48" y2="155.16" gradientUnits="userSpaceOnUse">
<stop stop-color="#D2DAEA"/>
<stop offset="1" stop-color="#CFDFFF" stop-opacity="0"/>
</linearGradient>
<linearGradient id="paint17_linear_52_61" x1="191.75" y1="107.25" x2="225.75" y2="146" gradientUnits="userSpaceOnUse">
<stop stop-color="#D2DAEA"/>
<stop offset="1" stop-color="#CFDFFF" stop-opacity="0"/>
</linearGradient>
<linearGradient id="paint18_linear_52_61" x1="103.75" y1="99.25" x2="137.75" y2="138" gradientUnits="userSpaceOnUse">
<stop stop-color="#D2DAEA"/>
<stop offset="1" stop-color="#CFDFFF" stop-opacity="0"/>
</linearGradient>
</defs>
</svg>
